<svg width="1366" height="455" viewBox="0 0 1366 455" fill="none" xmlns="http://www.w3.org/2000/svg">
<rect width="1366" height="455" fill="url(#paint0_linear)"/>
<path d="M411.517 255.32C409.981 255.32 408.637 255.277 407.485 255.192C406.333 255.107 404.882 254.936 403.133 254.68C401.426 254.467 400.231 254.019 399.549 253.336C398.909 252.653 398.653 251.544 398.781 250.008C399.122 245.656 399.826 240.408 400.893 234.264C402.002 228.077 403.346 222.125 404.925 216.408C405.479 214.403 407.207 213.4 410.109 213.4C412.711 213.4 414.013 214.168 414.013 215.704C414.013 216.301 413.885 216.984 413.629 217.752C412.562 221.208 411.495 225.795 410.429 231.512C409.362 237.229 408.594 242.691 408.125 247.896C409.789 248.024 411.218 248.088 412.413 248.088C419.879 248.088 425.447 245.869 429.117 241.432C432.829 236.952 434.685 231.043 434.685 223.704C434.685 218.285 433.255 214.189 430.397 211.416C427.581 208.643 423.89 207.256 419.325 207.256C417.533 207.256 415.762 207.405 414.013 207.704C412.306 208.003 410.215 208.536 407.741 209.304C406.973 209.56 406.333 209.688 405.821 209.688C404.285 209.688 403.517 208.813 403.517 207.064C403.517 205.699 403.879 204.653 404.605 203.928C405.373 203.16 406.866 202.392 409.085 201.624C412.199 200.515 415.847 199.96 420.029 199.96C425.063 199.96 429.373 200.941 432.957 202.904C436.583 204.824 439.335 207.555 441.213 211.096C443.133 214.595 444.093 218.691 444.093 223.384C444.093 229.784 442.813 235.395 440.253 240.216C437.693 244.995 433.959 248.707 429.053 251.352C424.146 253.997 418.301 255.32 411.517 255.32ZM471.265 242.648C471.82 242.648 472.247 242.904 472.545 243.416C472.887 243.928 473.057 244.632 473.057 245.528C473.057 247.064 472.695 248.387 471.969 249.496C470.775 251.331 469.196 252.76 467.233 253.784C465.313 254.808 463.009 255.32 460.321 255.32C456.225 255.32 453.047 254.104 450.785 251.672C448.524 249.197 447.393 245.869 447.393 241.688C447.393 238.744 448.012 236.013 449.249 233.496C450.487 230.936 452.193 228.909 454.369 227.416C456.588 225.923 459.084 225.176 461.857 225.176C464.332 225.176 466.316 225.923 467.809 227.416C469.303 228.867 470.049 230.851 470.049 233.368C470.049 236.312 468.983 238.851 466.849 240.984C464.759 243.075 461.175 244.739 456.097 245.976C457.121 247.939 458.849 248.92 461.281 248.92C463.031 248.92 464.46 248.515 465.569 247.704C466.721 246.893 468.044 245.528 469.537 243.608C470.049 242.968 470.625 242.648 471.265 242.648ZM460.769 231.448C459.191 231.448 457.847 232.365 456.737 234.2C455.671 236.035 455.137 238.253 455.137 240.856V240.984C457.655 240.387 459.639 239.491 461.089 238.296C462.54 237.101 463.265 235.715 463.265 234.136C463.265 233.325 463.031 232.685 462.561 232.216C462.135 231.704 461.537 231.448 460.769 231.448ZM481.706 255.32C479.914 255.32 478.506 254.659 477.482 253.336C476.458 251.971 475.818 249.795 475.562 246.808C475.05 240.835 474.794 235.608 474.794 231.128V228.888C474.836 227.48 475.22 226.499 475.946 225.944C476.671 225.389 477.759 225.112 479.21 225.112C480.319 225.112 481.13 225.368 481.642 225.88C482.196 226.349 482.474 227.16 482.474 228.312C482.474 233.219 482.772 239.597 483.37 247.448C485.204 244.291 486.783 241.411 488.106 238.808C489.471 236.163 490.943 232.685 492.522 228.376C492.991 227.096 493.61 226.243 494.378 225.816C495.146 225.347 496.106 225.112 497.258 225.112C499.604 225.112 500.778 225.859 500.778 227.352C500.778 227.864 500.607 228.568 500.266 229.464C496.81 237.528 493.546 244.035 490.474 248.984C488.98 251.416 487.551 253.08 486.186 253.976C484.82 254.872 483.327 255.32 481.706 255.32ZM524.453 242.648C525.007 242.648 525.434 242.904 525.733 243.416C526.074 243.928 526.245 244.632 526.245 245.528C526.245 247.064 525.882 248.387 525.157 249.496C523.962 251.331 522.383 252.76 520.421 253.784C518.501 254.808 516.197 255.32 513.509 255.32C509.413 255.32 506.234 254.104 503.973 251.672C501.711 249.197 500.581 245.869 500.581 241.688C500.581 238.744 501.199 236.013 502.437 233.496C503.674 230.936 505.381 228.909 507.557 227.416C509.775 225.923 512.271 225.176 515.045 225.176C517.519 225.176 519.503 225.923 520.997 227.416C522.49 228.867 523.237 230.851 523.237 233.368C523.237 236.312 522.17 238.851 520.037 240.984C517.946 243.075 514.362 244.739 509.285 245.976C510.309 247.939 512.037 248.92 514.469 248.92C516.218 248.92 517.647 248.515 518.757 247.704C519.909 246.893 521.231 245.528 522.725 243.608C523.237 242.968 523.813 242.648 524.453 242.648ZM513.957 231.448C512.378 231.448 511.034 232.365 509.925 234.2C508.858 236.035 508.325 238.253 508.325 240.856V240.984C510.842 240.387 512.826 239.491 514.277 238.296C515.727 237.101 516.453 235.715 516.453 234.136C516.453 233.325 516.218 232.685 515.749 232.216C515.322 231.704 514.725 231.448 513.957 231.448ZM546.349 245.976C546.819 245.549 547.288 245.336 547.757 245.336C548.269 245.336 548.675 245.635 548.973 246.232C549.315 246.787 549.485 247.469 549.485 248.28C549.485 250.072 548.845 251.501 547.565 252.568C545.347 254.403 542.829 255.32 540.013 255.32C535.96 255.32 532.995 253.635 531.117 250.264C529.24 246.851 528.301 242.413 528.301 236.952C528.301 231.747 528.963 225.816 530.285 219.16C531.651 212.504 533.635 206.787 536.237 202.008C538.883 197.229 542.019 194.84 545.645 194.84C547.693 194.84 549.293 195.8 550.445 197.72C551.64 199.597 552.237 202.307 552.237 205.848C552.237 210.925 550.829 216.813 548.013 223.512C545.24 230.211 541.443 236.824 536.621 243.352C536.92 245.101 537.453 246.36 538.221 247.128C538.989 247.896 540.035 248.28 541.357 248.28C542.083 248.28 542.893 248.067 543.789 247.64C544.728 247.213 545.581 246.659 546.349 245.976ZM544.237 201.176C543.256 201.176 542.147 202.947 540.909 206.488C539.672 210.029 538.584 214.424 537.645 219.672C536.707 224.92 536.195 229.955 536.109 234.776C539.139 229.784 541.549 224.792 543.341 219.8C545.133 214.765 546.029 210.179 546.029 206.04C546.029 202.797 545.432 201.176 544.237 201.176ZM562.232 255.32C559.714 255.32 557.56 254.701 555.768 253.464C554.018 252.184 552.696 250.52 551.8 248.472C550.904 246.424 550.456 244.227 550.456 241.88C550.456 238.637 551.053 235.757 552.248 233.24C553.485 230.68 555.149 228.696 557.24 227.288C559.33 225.837 561.677 225.112 564.28 225.112C566.797 225.112 568.952 225.752 570.744 227.032C572.536 228.269 573.88 229.912 574.776 231.96C575.672 234.008 576.12 236.205 576.12 238.552C576.12 241.795 575.501 244.696 574.264 247.256C573.026 249.773 571.341 251.757 569.208 253.208C567.117 254.616 564.792 255.32 562.232 255.32ZM562.936 248.408C564.386 248.408 565.602 247.619 566.584 246.04C567.608 244.461 568.12 242.157 568.12 239.128C568.12 236.781 567.693 235.011 566.84 233.816C565.986 232.621 564.962 232.024 563.768 232.024C562.232 232.024 560.952 232.813 559.928 234.392C558.946 235.928 558.456 238.232 558.456 241.304C558.456 243.736 558.882 245.528 559.736 246.68C560.589 247.832 561.656 248.408 562.936 248.408ZM605.76 235.48C605.76 238.851 604.97 242.051 603.392 245.08C601.856 248.067 599.786 250.499 597.184 252.376C594.624 254.253 591.872 255.235 588.928 255.32C588.373 263.555 587.114 270.424 585.152 275.928C583.189 281.475 580.309 284.248 576.512 284.248C574.208 284.248 572.501 283.416 571.392 281.752C570.282 280.088 569.728 277.784 569.728 274.84C569.728 270.659 570.688 265.773 572.608 260.184C574.528 254.637 577.493 248.515 581.504 241.816C581.504 235.587 581.461 231.256 581.376 228.824C581.333 227.587 581.824 226.605 582.848 225.88C583.872 225.155 585.152 224.792 586.688 224.792C587.584 224.792 588.224 224.984 588.608 225.368C589.034 225.709 589.269 226.413 589.312 227.48C589.312 228.547 589.333 229.336 589.376 229.848C590.741 228.141 592.085 226.925 593.408 226.2C594.73 225.432 596.138 225.048 597.632 225.048C600.021 225.048 601.962 226.008 603.456 227.928C604.992 229.848 605.76 232.365 605.76 235.48ZM589.248 249.176C590.784 248.835 592.192 248.003 593.472 246.68C594.794 245.315 595.84 243.651 596.608 241.688C597.376 239.683 597.76 237.592 597.76 235.416C597.76 234.136 597.504 233.176 596.992 232.536C596.48 231.853 595.797 231.512 594.944 231.512C593.408 231.512 591.552 233.133 589.376 236.376C589.333 238.253 589.312 241.005 589.312 244.632C589.312 246.595 589.29 248.109 589.248 249.176ZM577.024 277.976C578.176 277.976 579.136 275.459 579.904 270.424C580.672 265.432 581.162 259.203 581.376 251.736C579.541 256.003 578.09 260.077 577.024 263.96C575.957 267.843 575.424 271.107 575.424 273.752C575.424 275.117 575.594 276.163 575.936 276.888C576.234 277.613 576.597 277.976 577.024 277.976ZM632.578 242.648C633.132 242.648 633.559 242.904 633.858 243.416C634.199 243.928 634.37 244.632 634.37 245.528C634.37 247.064 634.007 248.387 633.282 249.496C632.087 251.331 630.508 252.76 628.546 253.784C626.626 254.808 624.322 255.32 621.634 255.32C617.538 255.32 614.359 254.104 612.098 251.672C609.836 249.197 608.706 245.869 608.706 241.688C608.706 238.744 609.324 236.013 610.562 233.496C611.799 230.936 613.506 228.909 615.682 227.416C617.9 225.923 620.396 225.176 623.17 225.176C625.644 225.176 627.628 225.923 629.122 227.416C630.615 228.867 631.362 230.851 631.362 233.368C631.362 236.312 630.295 238.851 628.162 240.984C626.071 243.075 622.487 244.739 617.41 245.976C618.434 247.939 620.162 248.92 622.594 248.92C624.343 248.92 625.772 248.515 626.882 247.704C628.034 246.893 629.356 245.528 630.85 243.608C631.362 242.968 631.938 242.648 632.578 242.648ZM622.082 231.448C620.503 231.448 619.159 232.365 618.05 234.2C616.983 236.035 616.45 238.253 616.45 240.856V240.984C618.967 240.387 620.951 239.491 622.402 238.296C623.852 237.101 624.578 235.715 624.578 234.136C624.578 233.325 624.343 232.685 623.874 232.216C623.447 231.704 622.85 231.448 622.082 231.448ZM661.834 233.944C662.773 233.944 663.562 234.285 664.202 234.968C664.885 235.608 665.226 236.419 665.226 237.4C665.226 237.955 665.098 238.552 664.842 239.192C664.16 240.771 663.2 242.093 661.962 243.16C660.725 244.227 659.36 244.76 657.866 244.76C656.672 244.76 655.648 244.333 654.794 243.48C653.984 242.627 653.578 241.475 653.578 240.024C653.578 239.213 653.621 238.339 653.706 237.4C653.792 236.717 653.834 236.248 653.834 235.992C653.834 235.651 653.749 235.395 653.578 235.224C653.45 235.053 653.28 234.968 653.066 234.968C652.469 234.968 651.658 235.693 650.634 237.144C649.61 238.552 648.586 240.429 647.562 242.776C646.538 245.123 645.706 247.597 645.066 250.2C644.597 252.248 644.064 253.613 643.466 254.296C642.869 254.979 641.888 255.32 640.522 255.32C638.901 255.32 637.749 254.467 637.066 252.76C636.426 251.053 636.106 248.323 636.106 244.568C636.106 239.021 636.896 233.752 638.474 228.76C638.858 227.523 639.477 226.627 640.33 226.072C641.226 225.475 642.464 225.176 644.042 225.176C644.896 225.176 645.493 225.283 645.834 225.496C646.176 225.709 646.346 226.115 646.346 226.712C646.346 227.395 646.026 228.931 645.386 231.32C644.96 233.027 644.618 234.52 644.362 235.8C644.106 237.08 643.893 238.659 643.722 240.536C645.13 236.867 646.709 233.88 648.458 231.576C650.208 229.272 651.914 227.629 653.578 226.648C655.242 225.667 656.757 225.176 658.122 225.176C659.36 225.176 660.298 225.539 660.938 226.264C661.621 226.947 661.962 227.971 661.962 229.336C661.962 230.147 661.728 231.683 661.258 233.944H661.834ZM724.219 200.536C725.883 200.408 727.121 200.664 727.931 201.304C728.742 201.944 729.147 202.861 729.147 204.056C729.147 206.275 727.825 207.619 725.179 208.088C721.766 208.728 716.219 209.048 708.539 209.048H705.787C704.465 215.917 703.419 221.485 702.651 225.752L716.603 225.496C718.182 225.496 719.227 225.773 719.739 226.328C720.294 226.84 720.571 227.587 720.571 228.568C720.571 230.019 720.145 231.149 719.291 231.96C718.481 232.728 717.265 233.112 715.643 233.112L701.371 233.24C700.006 242.157 699.195 248.237 698.939 251.48C698.769 254.04 697.254 255.32 694.395 255.32C692.859 255.32 691.707 254.979 690.939 254.296C690.214 253.613 689.851 252.675 689.851 251.48C689.851 250.115 690.043 248.024 690.427 245.208C690.854 242.392 691.494 238.467 692.347 233.432L688.635 233.496C687.697 233.496 686.907 233.325 686.267 232.984C685.67 232.6 685.371 231.811 685.371 230.616C685.371 229.208 685.755 228.077 686.523 227.224C687.291 226.371 688.358 225.944 689.723 225.944L693.627 225.88C694.139 223.021 695.142 217.816 696.635 210.264L696.891 208.92L693.307 208.728C691.259 208.557 689.723 208.131 688.699 207.448C687.718 206.765 687.227 205.699 687.227 204.248C687.227 203.053 687.611 202.2 688.379 201.688C689.147 201.176 690.385 200.92 692.091 200.92C693.841 200.92 696.379 200.963 699.707 201.048C702.182 201.176 704.699 201.24 707.259 201.24C712.465 201.24 718.118 201.005 724.219 200.536ZM731.009 255.32C729.004 255.32 727.383 254.509 726.145 252.888C724.951 251.224 724.353 248.941 724.353 246.04C724.353 242.84 724.567 239.917 724.993 237.272C725.42 234.584 726.124 231.747 727.105 228.76C727.532 227.48 728.129 226.563 728.897 226.008C729.665 225.453 730.881 225.176 732.545 225.176C733.484 225.176 734.124 225.325 734.465 225.624C734.849 225.923 735.041 226.371 735.041 226.968C735.041 227.309 734.807 228.461 734.337 230.424C733.911 232.003 733.569 233.432 733.313 234.712C732.46 239.192 732.033 242.179 732.033 243.672C732.033 244.568 732.14 245.208 732.353 245.592C732.567 245.933 732.908 246.104 733.377 246.104C734.017 246.104 734.828 245.464 735.809 244.184C736.791 242.861 737.815 240.899 738.881 238.296C739.991 235.651 741.036 232.472 742.017 228.76C742.359 227.48 742.871 226.563 743.553 226.008C744.279 225.453 745.345 225.176 746.753 225.176C747.692 225.176 748.353 225.432 748.737 225.944C749.164 226.413 749.377 227.139 749.377 228.12C749.377 229.187 749.292 230.381 749.121 231.704C748.951 232.984 748.759 234.307 748.545 235.672C748.119 238.403 747.777 240.899 747.521 243.16C747.265 245.379 747.137 247.917 747.137 250.776C747.137 252.397 746.796 253.571 746.113 254.296C745.473 254.979 744.407 255.32 742.913 255.32C741.335 255.32 740.225 254.915 739.585 254.104C738.988 253.251 738.689 251.629 738.689 249.24C738.689 248.771 738.732 247.725 738.817 246.104C738.092 249.091 737.004 251.373 735.553 252.952C734.145 254.531 732.631 255.32 731.009 255.32ZM772.287 245.976C772.756 245.549 773.225 245.336 773.695 245.336C774.207 245.336 774.612 245.635 774.911 246.232C775.252 246.787 775.423 247.469 775.423 248.28C775.423 250.072 774.783 251.501 773.503 252.568C771.284 254.403 768.767 255.32 765.951 255.32C761.897 255.32 758.932 253.635 757.055 250.264C755.177 246.851 754.239 242.413 754.239 236.952C754.239 231.747 754.9 225.816 756.223 219.16C757.588 212.504 759.572 206.787 762.175 202.008C764.82 197.229 767.956 194.84 771.583 194.84C773.631 194.84 775.231 195.8 776.383 197.72C777.577 199.597 778.175 202.307 778.175 205.848C778.175 210.925 776.767 216.813 773.951 223.512C771.177 230.211 767.38 236.824 762.559 243.352C762.857 245.101 763.391 246.36 764.159 247.128C764.927 247.896 765.972 248.28 767.295 248.28C768.02 248.28 768.831 248.067 769.727 247.64C770.665 247.213 771.519 246.659 772.287 245.976ZM770.175 201.176C769.193 201.176 768.084 202.947 766.847 206.488C765.609 210.029 764.521 214.424 763.583 219.672C762.644 224.92 762.132 229.955 762.047 234.776C765.076 229.784 767.487 224.792 769.279 219.8C771.071 214.765 771.967 210.179 771.967 206.04C771.967 202.797 771.369 201.176 770.175 201.176ZM795.849 245.976C796.319 245.549 796.788 245.336 797.257 245.336C797.769 245.336 798.175 245.635 798.473 246.232C798.815 246.787 798.985 247.469 798.985 248.28C798.985 250.072 798.345 251.501 797.065 252.568C794.847 254.403 792.329 255.32 789.513 255.32C785.46 255.32 782.495 253.635 780.617 250.264C778.74 246.851 777.801 242.413 777.801 236.952C777.801 231.747 778.463 225.816 779.785 219.16C781.151 212.504 783.135 206.787 785.737 202.008C788.383 197.229 791.519 194.84 795.145 194.84C797.193 194.84 798.793 195.8 799.945 197.72C801.14 199.597 801.737 202.307 801.737 205.848C801.737 210.925 800.329 216.813 797.513 223.512C794.74 230.211 790.943 236.824 786.121 243.352C786.42 245.101 786.953 246.36 787.721 247.128C788.489 247.896 789.535 248.28 790.857 248.28C791.583 248.28 792.393 248.067 793.289 247.64C794.228 247.213 795.081 246.659 795.849 245.976ZM793.737 201.176C792.756 201.176 791.647 202.947 790.409 206.488C789.172 210.029 788.084 214.424 787.145 219.672C786.207 224.92 785.695 229.955 785.609 234.776C788.639 229.784 791.049 224.792 792.841 219.8C794.633 214.765 795.529 210.179 795.529 206.04C795.529 202.797 794.932 201.176 793.737 201.176ZM835.709 255.512C830.035 255.512 825.491 254.445 822.077 252.312C818.664 250.136 816.957 246.829 816.957 242.392C816.957 240.045 817.363 238.253 818.173 237.016C818.984 235.779 820.179 235.16 821.757 235.16C822.909 235.16 823.848 235.459 824.573 236.056C825.299 236.653 825.661 237.421 825.661 238.36C825.661 239.213 825.597 239.96 825.469 240.6C825.469 240.771 825.427 241.069 825.341 241.496C825.299 241.923 825.277 242.371 825.277 242.84C825.277 244.76 826.237 246.189 828.157 247.128C830.12 248.067 832.851 248.536 836.349 248.536C839.976 248.536 842.813 247.896 844.861 246.616C846.909 245.293 847.933 243.459 847.933 241.112C847.933 239.661 847.464 238.424 846.525 237.4C845.587 236.333 844.413 235.459 843.005 234.776C841.597 234.051 839.613 233.176 837.053 232.152C833.768 230.872 831.08 229.656 828.989 228.504C826.941 227.352 825.171 225.795 823.677 223.832C822.227 221.827 821.501 219.352 821.501 216.408C821.501 213.336 822.312 210.605 823.933 208.216C825.597 205.827 827.965 203.971 831.037 202.648C834.152 201.325 837.8 200.664 841.981 200.664C845.096 200.664 847.955 201.133 850.557 202.072C853.16 202.968 855.229 204.355 856.765 206.232C858.344 208.109 859.133 210.413 859.133 213.144C859.133 215.832 858.728 217.859 857.917 219.224C857.107 220.589 855.912 221.272 854.333 221.272C853.224 221.272 852.285 220.931 851.517 220.248C850.792 219.565 850.429 218.755 850.429 217.816C850.429 217.005 850.493 216.259 850.621 215.576C850.749 214.296 850.813 213.485 850.813 213.144C850.813 211.352 849.939 209.987 848.189 209.048C846.44 208.109 844.264 207.64 841.661 207.64C837.992 207.64 835.176 208.323 833.213 209.688C831.293 211.011 830.333 212.888 830.333 215.32C830.333 216.941 830.824 218.328 831.805 219.48C832.829 220.632 834.088 221.592 835.581 222.36C837.075 223.128 839.165 224.045 841.853 225.112C845.096 226.435 847.699 227.629 849.661 228.696C851.624 229.763 853.288 231.213 854.653 233.048C856.061 234.883 856.765 237.144 856.765 239.832C856.765 244.867 854.845 248.749 851.005 251.48C847.208 254.168 842.109 255.512 835.709 255.512ZM872.163 231.256C872.078 233.389 872.035 235.053 872.035 236.248C872.035 239.32 872.185 241.731 872.483 243.48C872.825 245.187 873.358 246.424 874.083 247.192C874.851 247.917 875.897 248.28 877.219 248.28C877.902 248.28 878.713 248.067 879.651 247.64C880.59 247.213 881.443 246.659 882.211 245.976C882.681 245.549 883.15 245.336 883.619 245.336C884.131 245.336 884.537 245.635 884.835 246.232C885.177 246.787 885.347 247.469 885.347 248.28C885.347 249.091 885.177 249.88 884.835 250.648C884.537 251.416 884.067 252.056 883.427 252.568C881.209 254.403 878.691 255.32 875.875 255.32C871.822 255.32 868.857 253.635 866.979 250.264C865.102 246.851 864.163 242.413 864.163 236.952C864.163 235.075 864.227 233.176 864.355 231.256H861.859C860.579 231.256 859.705 231.021 859.235 230.552C858.809 230.083 858.595 229.336 858.595 228.312C858.595 225.923 859.555 224.728 861.475 224.728H865.123C865.849 220.035 866.958 215.747 868.451 211.864C869.945 207.981 871.737 204.888 873.827 202.584C875.961 200.28 878.243 199.128 880.675 199.128C882.467 199.128 883.875 199.917 884.899 201.496C885.923 203.075 886.435 205.059 886.435 207.448C886.435 214.061 883.662 219.821 878.115 224.728H885.283C885.966 224.728 886.457 224.877 886.755 225.176C887.054 225.475 887.203 226.029 887.203 226.84C887.203 229.784 884.793 231.256 879.971 231.256H872.163ZM878.947 205.272C878.307 205.272 877.582 206.083 876.771 207.704C876.003 209.283 875.257 211.501 874.531 214.36C873.849 217.176 873.273 220.312 872.803 223.768C875.321 221.592 877.198 219.16 878.435 216.472C879.715 213.741 880.355 211.267 880.355 209.048C880.355 206.531 879.886 205.272 878.947 205.272ZM895.401 255.32C892.969 255.32 890.985 254.36 889.449 252.44C887.955 250.52 887.209 248.003 887.209 244.888C887.209 241.475 887.998 238.253 889.577 235.224C891.155 232.152 893.246 229.699 895.849 227.864C898.494 225.987 901.289 225.048 904.233 225.048C905.171 225.048 905.79 225.24 906.089 225.624C906.43 225.965 906.707 226.605 906.921 227.544C907.731 227.373 908.627 227.288 909.609 227.288C910.633 227.288 911.422 227.544 911.977 228.056C912.531 228.568 912.809 229.293 912.809 230.232C912.809 231.213 912.595 232.92 912.169 235.352C911.699 237.955 911.337 240.451 911.081 242.84C910.825 245.187 910.697 247.832 910.697 250.776C910.697 252.397 910.355 253.571 909.673 254.296C909.033 254.979 907.966 255.32 906.473 255.32C905.022 255.32 903.934 254.979 903.209 254.296C902.526 253.571 902.185 252.419 902.185 250.84L902.249 249.816C900.926 253.485 898.643 255.32 895.401 255.32ZM897.897 248.856C899.091 248.856 900.179 248.024 901.161 246.36C902.142 244.696 903.017 241.731 903.785 237.464L905.001 231C903.251 231.043 901.63 231.725 900.137 233.048C898.643 234.328 897.449 236.035 896.553 238.168C895.657 240.301 895.209 242.563 895.209 244.952C895.209 246.232 895.443 247.213 895.913 247.896C896.425 248.536 897.086 248.856 897.897 248.856ZM929.257 255.32C925.204 255.32 922.025 254.147 919.721 251.8C917.46 249.411 916.329 246.275 916.329 242.392C916.329 238.936 917.012 235.907 918.377 233.304C919.743 230.701 921.513 228.696 923.689 227.288C925.865 225.88 928.148 225.176 930.537 225.176C932.884 225.176 934.697 225.88 935.977 227.288C937.3 228.653 937.961 230.424 937.961 232.6C937.961 234.392 937.556 235.907 936.745 237.144C935.977 238.381 934.953 239 933.673 239C932.863 239 932.201 238.808 931.689 238.424C931.22 238.04 930.985 237.507 930.985 236.824C930.985 236.525 931.028 236.184 931.113 235.8C931.199 235.416 931.263 235.139 931.305 234.968C931.519 234.328 931.625 233.731 931.625 233.176C931.625 232.621 931.476 232.195 931.177 231.896C930.921 231.597 930.537 231.448 930.025 231.448C929.044 231.448 928.127 231.896 927.273 232.792C926.42 233.645 925.737 234.819 925.225 236.312C924.713 237.805 924.457 239.448 924.457 241.24C924.457 243.672 924.948 245.528 925.929 246.808C926.953 248.045 928.383 248.664 930.217 248.664C931.668 248.664 932.991 248.237 934.185 247.384C935.423 246.531 936.639 245.272 937.833 243.608C938.345 242.968 938.921 242.648 939.561 242.648C940.116 242.648 940.543 242.904 940.841 243.416C941.183 243.928 941.353 244.632 941.353 245.528C941.353 247.064 940.991 248.387 940.265 249.496C939.113 251.288 937.599 252.717 935.721 253.784C933.844 254.808 931.689 255.32 929.257 255.32ZM970.428 248.344C972.178 248.685 973.052 249.645 973.052 251.224C973.052 252.291 972.562 253.251 971.58 254.104C970.642 254.915 969.276 255.32 967.484 255.32C964.412 255.32 961.895 254.381 959.932 252.504C958.012 250.584 957.052 248.088 957.052 245.016C957.052 243.352 957.906 242.157 959.612 241.432C961.49 240.621 962.834 239.768 963.644 238.872C964.455 237.933 964.86 236.803 964.86 235.48C964.86 234.712 964.69 234.136 964.348 233.752C964.05 233.368 963.666 233.176 963.196 233.176C962.044 233.176 960.764 234.008 959.356 235.672C957.991 237.336 956.711 239.491 955.516 242.136C954.322 244.739 953.383 247.427 952.7 250.2C952.231 252.205 951.676 253.571 951.036 254.296C950.439 254.979 949.479 255.32 948.156 255.32C946.834 255.32 945.852 254.851 945.212 253.912C944.615 252.931 944.21 251.437 943.996 249.432C943.783 247.427 943.676 244.483 943.676 240.6C943.676 234.029 944.338 227.181 945.66 220.056C947.026 212.931 949.01 206.957 951.612 202.136C954.258 197.272 957.415 194.84 961.084 194.84C963.047 194.84 964.626 195.693 965.82 197.4C967.058 199.064 967.676 201.24 967.676 203.928C967.676 208.237 966.418 212.717 963.9 217.368C961.383 221.976 957.287 227.373 951.612 233.56C951.484 235.779 951.42 238.061 951.42 240.408C953.468 235.075 955.815 231.213 958.46 228.824C961.106 226.392 963.58 225.176 965.884 225.176C968.018 225.176 969.724 225.901 971.004 227.352C972.327 228.803 972.988 230.595 972.988 232.728C972.988 235.075 972.391 237.229 971.196 239.192C970.002 241.155 967.954 242.904 965.052 244.44C965.308 245.72 965.82 246.616 966.588 247.128C967.399 247.597 968.679 248.003 970.428 248.344ZM959.74 201.176C958.972 201.176 958.119 202.285 957.18 204.504C956.242 206.68 955.324 209.645 954.428 213.4C953.575 217.112 952.871 221.165 952.316 225.56C954.962 222.445 957.138 219.053 958.844 215.384C960.594 211.715 961.468 208.387 961.468 205.4C961.468 204.035 961.319 202.989 961.02 202.264C960.722 201.539 960.295 201.176 959.74 201.176Z" fill="black"/>
<defs>
<linearGradient id="paint0_linear" x1="1366" y1="-0.000125654" x2="-5.99468e-05" y2="455" gradientUnits="userSpaceOnUse">
<stop stop-color="#7BA36A"/>
<stop offset="1" stop-color="#5B764F"/>
</linearGradient>
</defs>
</svg>
