<svg width="100" height="100" viewBox="0 0 100 100" fill="none" xmlns="http://www.w3.org/2000/svg">
<g filter="url(#filter0_d)">
<path d="M80.0005 20H30.0005V86.6666H80.0005V20Z" fill="url(#paint0_linear)"/>
<path d="M26.6669 16.6666H73.316L76.667 20.0631V83.3333H30.0003L28.3336 81.6667L26.6669 80V16.6666Z" fill="white"/>
<path d="M73.334 80H26.6673L25.0007 78.3333L23.334 76.6667V13.3334H69.8817L73.334 16.691V80Z" fill="white"/>
<path d="M70.0001 10H20.0001V76.6667H70.0001V10Z" fill="url(#paint1_linear)"/>
<path d="M23.3335 76.6667L26.6668 80L30.0001 83.3333V86.6667L20.0001 76.6667H23.3335Z" fill="#105E0F"/>
</g>
<defs>
<filter id="filter0_d" x="19.4239" y="9.42379" width="61.1528" height="77.8191" filterUnits="userSpaceOnUse" color-interpolation-filters="sRGB">
<feFlood flood-opacity="0" result="BackgroundImageFix"/>
<feColorMatrix in="SourceAlpha" type="matrix" values="0 0 0 0 0 0 0 0 0 0 0 0 0 0 0 0 0 0 127 0"/>
<feOffset/>
<feGaussianBlur stdDeviation="0.288104"/>
<feColorMatrix type="matrix" values="0 0 0 0 0 0 0 0 0 0 0 0 0 0 0 0 0 0 0.5 0"/>
<feBlend mode="normal" in2="BackgroundImageFix" result="effect1_dropShadow"/>
<feBlend mode="normal" in="SourceGraphic" in2="effect1_dropShadow" result="shape"/>
</filter>
<linearGradient id="paint0_linear" x1="30.0005" y1="86.6666" x2="76.8227" y2="17.8382" gradientUnits="userSpaceOnUse">
<stop stop-color="#115F0F"/>
<stop offset="1" stop-color="#115F0F"/>
</linearGradient>
<linearGradient id="paint1_linear" x1="20.0001" y1="76.6667" x2="66.822" y2="7.83816" gradientUnits="userSpaceOnUse">
<stop offset="0.0221378" stop-color="#115F0F"/>
<stop offset="0.505208" stop-color="#149111"/>
<stop offset="1" stop-color="#16B713"/>
</linearGradient>
</defs>
</svg>
